<svg xmlns="http://www.w3.org/2000/svg" viewBox="0 0 121.5684 128.6107"><defs><style>.a{fill:#644768;}.b{fill:#8a527e;}.c{fill:#70afdf;}.d{fill:#92cef6;}.e{fill:#d3f3fc;}.f{fill:#f9f9f9;}.g{fill:#304d78;}.h{fill:#8fc8eb;}.i{fill:#d1f3f7;}.j{fill:#fcfdfd;}.k{fill:#dfdfdf;}</style></defs><path class="a" d="M84.3555,100.4065s.3911-33.492-8.2589-39.8972S64.4031,90.43,64.4031,90.43A30.4244,30.4244,0,0,0,84.3555,100.4065Z"/><path class="b" d="M76.7089,61.0384A56.3112,56.3112,0,0,1,69.9957,84.182c2.188,4.5739,4.7867,9.4759,6.5177,14.4594a28.3784,28.3784,0,0,0,7.8421,1.7651S84.7233,68.5411,76.7089,61.0384Z"/><path class="a" d="M108.2814,48.1774s.391-33.492-8.2589-39.8973S88.329,38.2009,88.329,38.2009A30.4246,30.4246,0,0,0,108.2814,48.1774Z"/><path class="a" d="M13.287,48.1774S12.8959,14.6854,21.5459,8.28,33.2394,38.2009,33.2394,38.2009A30.4246,30.4246,0,0,1,13.287,48.1774Z"/><path class="b" d="M14.631,47.1114A80.8905,80.8905,0,0,0,25.1081,44.03a17.29,17.29,0,0,0,7.5707-5.9l-1.2014-6.3273s-8.97,3.0435-12.2542,6.4875S14.631,47.1114,14.631,47.1114Z"/><path class="a" d="M37.2129,100.4065s-.3911-33.492,8.2589-39.8972S57.1653,90.43,57.1653,90.43A30.4244,30.4244,0,0,1,37.2129,100.4065Z"/><path class="b" d="M44.86,61.0384A56.3112,56.3112,0,0,0,51.5727,84.182c-2.188,4.5739-4.7868,9.4759-6.5177,14.4594a28.3791,28.3791,0,0,1-7.8421,1.7651S36.8451,68.5411,44.86,61.0384Z"/><path class="c" d="M51.8274,106.44c0,3.2853-5.6143,14.7084-5.6143,14.7084s-5.6143-11.4231-5.6143-14.7084a5.6237,5.6237,0,1,1,11.2286,0Z"/><path class="d" d="M49.8916,104.7781c0,2.1525-3.6785,9.6369-3.6785,9.6369s-3.6784-7.4844-3.6784-9.6369a3.6846,3.6846,0,1,1,7.3569,0Z"/><path class="e" d="M47.7623,103.398c0,.9065-1.5492,4.0586-1.5492,4.0586s-1.5492-3.1521-1.5492-4.0586a1.5518,1.5518,0,1,1,3.0984,0Z"/><path class="c" d="M17.9883,54.451c0,3.0859,5.2736,13.8157,5.2736,13.8157s5.2735-10.73,5.2735-13.8157a5.4373,5.4373,0,0,0-5.2735-5.5876A5.4374,5.4374,0,0,0,17.9883,54.451Z"/><path class="d" d="M19.8066,52.89c0,2.0219,3.4553,9.0521,3.4553,9.0521s3.4552-7.03,3.4552-9.0521a3.461,3.461,0,1,0-6.91,0Z"/><path class="e" d="M21.8067,51.5938a17.9459,17.9459,0,0,0,1.4552,3.8122,17.9467,17.9467,0,0,0,1.4551-3.8122,1.4576,1.4576,0,1,0-2.91,0Z"/><path class="f" d="M121.4252,54.2288c-5.2241-6.4074-18.1894-18.8331-30.9505-23.0409s-15.6136-3.597-15.3722,1.1047,4.3859,21.9182-2.0063,40.2684-12.312,23.6783-12.312,23.6783c-.0114-.01-5.926-5.3458-12.312-23.6783-6.3922-18.35-2.2478-35.5666-2.0063-40.2684S43.8548,26.98,31.0937,31.1879,5.3673,47.8214.1432,54.2288v0a28.8678,28.8678,0,0,1,1.4736-12.417C3.8247,35.5209,8.0689,26.3343,15.4037,20.16,27.5226,9.9592,40.2876,0,60.7842,0s33.2616,9.9592,45.38,20.16c7.3349,6.1741,11.5791,15.3607,13.787,21.6515a28.87,28.87,0,0,1,1.4736,12.4171Z"/><path class="b" d="M106.9374,47.1114A80.8905,80.8905,0,0,1,96.46,44.03a17.29,17.29,0,0,1-7.5707-5.9l1.2014-6.3273s8.97,3.0435,12.2541,6.4875S106.9374,47.1114,106.9374,47.1114Z"/><path class="g" d="M60.7842,48.4131c5.2791,0,11.0457-15.668,11.2155-25.72.1564-9.2569-5.412-17.4089-11.2155-17.4089s-11.3719,8.152-11.2155,17.4089C49.7385,32.7451,55.5051,48.4131,60.7842,48.4131Z"/><path class="h" d="M60.7841,6.566a7.28,7.28,0,0,1,5.0542,2.5057c3.0986,3.1518,4.9686,8.3628,4.88,13.6-.17,10.0582-6.0194,24.46-9.9345,24.46S51.02,32.73,50.85,22.6718c-.0882-5.2373,1.7817-10.4486,4.88-13.6A7.2788,7.2788,0,0,1,60.7841,6.566Z"/><path class="i" d="M60.7841,7.2068A6.6681,6.6681,0,0,1,65.3816,9.521c2.9821,3.0335,4.7817,8.0684,4.6963,13.14-.17,10.0534-6.0748,23.83-9.2938,23.83s-9.1237-13.7762-9.2936-23.83c-.0854-5.0717,1.7142-10.1066,4.6964-13.14A6.6665,6.6665,0,0,1,60.7841,7.2068Z"/><path class="j" d="M65.3816,9.521a7.34,7.34,0,0,0-3.7471-2.2233l-9.3661,9.3661a21.0312,21.0312,0,0,0-.7779,5.997c.0109.6468.0464,1.3093.1026,1.9821L66.0148,10.2212C65.81,9.9786,65.6,9.7429,65.3816,9.521Z"/><path class="j" d="M58.0376,44.2357l9.9872-9.9872a43.4223,43.4223,0,0,0,2.0531-11.5873,21.0259,21.0259,0,0,0-.3529-4.1632l-16.08,16.08A37.5918,37.5918,0,0,0,58.0376,44.2357Z"/><path class="j" d="M52.1361,28.597c.1948,1.0416.4285,2.087.6925,3.1212L68.9647,15.582A18.5173,18.5173,0,0,0,67.82,12.9129Z"/><path class="c" d="M69.741,106.44c0,3.2853,5.6143,14.7084,5.6143,14.7084S80.97,109.7251,80.97,106.44a5.6236,5.6236,0,1,0-11.2285,0Z"/><path class="d" d="M71.6768,104.7781c0,2.1525,3.6785,9.6369,3.6785,9.6369s3.6784-7.4844,3.6784-9.6369a3.6846,3.6846,0,1,0-7.3569,0Z"/><path class="e" d="M73.8061,103.398c0,.9065,1.5492,4.0586,1.5492,4.0586s1.5491-3.1521,1.5491-4.0586a1.5517,1.5517,0,1,0-3.0983,0Z"/><path class="c" d="M103.58,54.451c0,3.0859-5.2736,13.8157-5.2736,13.8157S93.033,57.5369,93.033,54.451a5.2824,5.2824,0,1,1,10.5471,0Z"/><path class="d" d="M101.7617,52.89c0,2.0219-3.4552,9.0521-3.4552,9.0521s-3.4552-7.03-3.4552-9.0521a3.461,3.461,0,1,1,6.91,0Z"/><path class="e" d="M99.7617,51.5938a17.9459,17.9459,0,0,1-1.4552,3.8122,17.9459,17.9459,0,0,1-1.4552-3.8122,1.4576,1.4576,0,1,1,2.91,0Z"/><path class="c" d="M52.579,109.6011c0,4.2461,7.6881,19.01,7.6881,19.01s7.6882-14.7635,7.6882-19.01a7.6882,7.6882,0,0,0-15.3763,0Z"/><path class="d" d="M55.23,107.4535c0,2.782,5.0372,12.455,5.0372,12.455s5.0373-9.673,5.0373-12.455a5.0373,5.0373,0,1,0-10.0745,0Z"/><path class="e" d="M58.1457,105.67c0,1.1716,2.1214,5.2454,2.1214,5.2454s2.1215-4.0738,2.1215-5.2454a2.1215,2.1215,0,0,0-4.2429,0Z"/><path class="k" d="M60.2671,79.7452c-5.4956,0-8.7992,12.1471-9.4631,18.0708-.1147,1.0237,1.3784,1.8867,3.2646,1.8867H66.4657c1.8862,0,3.3792-.863,3.2645-1.8867C69.0664,91.8923,65.7628,79.7452,60.2671,79.7452Z"/><path class="f" d="M60.2671,80.0792c-4.074,0-6.8031,7.8463-7.96,13.7174-.5359,2.72,3.1772,5.1,7.96,5.1h0c4.7826,0,8.4958-2.38,7.96-5.1C67.07,87.9255,64.3411,80.0792,60.2671,80.0792Z"/></svg>
